#N canvas 40 40 1200 720 12;
#X obj 0 0 cnv 15 1200 720 empty empty empty 20 12 0 14 #17191d #17191d 0;
#X obj 20 18 cnv 15 1160 52 empty empty empty 20 12 0 14 #22252b #22252b 0;
#X text 38 31 HARMONY CANVAS;
#X text 38 50 Harmony-aware MIDI sketchpad;
#X obj 252 30 cnv 15 10 10 empty empty empty 20 12 0 14 #51d88a #51d88a 0;
#X text 270 29 LIVE CONNECTED;
#X obj 706 26 cnv 15 92 30 empty empty PULL 29 9 0 13 #355f91 #ffffff 0;
#X obj 808 26 cnv 15 104 30 empty empty COMMIT 25 9 0 13 #6f56c7 #ffffff 0;
#X obj 922 26 cnv 15 130 30 empty empty COMMIT\ AS\ NEW 12 9 0 11 #3c4048 #ffffff 0;
#X obj 1062 26 cnv 15 98 30 empty empty MIDI 31 9 0 13 #ca547c #ffffff 0;
#X obj 20 82 cnv 15 1160 54 empty empty empty 20 12 0 14 #202329 #202329 0;
#X text 38 91 TONIC;
#X obj 38 108 cnv 15 64 20 empty empty D 27 3 0 13 #32363e #f3f4f6 0;
#X text 120 91 MODE;
#X obj 120 108 cnv 15 104 20 empty empty AEOLIAN 22 3 0 12 #32363e #f3f4f6 0;
#X text 242 91 SNAP;
#X obj 242 108 cnv 15 72 20 empty empty 1/8 25 3 0 12 #32363e #f3f4f6 0;
#X text 332 91 COLOR;
#X obj 332 108 cnv 15 82 20 empty empty ROLES 21 3 0 12 #32363e #f3f4f6 0;
#X text 438 98 Root;
#X obj 426 101 cnv 15 8 8 empty empty empty 20 12 0 14 #e45858 #e45858 0;
#X text 499 98 Guide;
#X obj 487 101 cnv 15 8 8 empty empty empty 20 12 0 14 #d89b42 #d89b42 0;
#X text 566 98 Chord;
#X obj 554 101 cnv 15 8 8 empty empty empty 20 12 0 14 #55a86e #55a86e 0;
#X text 640 98 Tension;
#X obj 628 101 cnv 15 8 8 empty empty empty 20 12 0 14 #4e97c9 #4e97c9 0;
#X text 730 98 Scale;
#X obj 718 101 cnv 15 8 8 empty empty empty 20 12 0 14 #8c64bd #8c64bd 0;
#X text 802 98 Outside;
#X obj 790 101 cnv 15 8 8 empty empty empty 20 12 0 14 #3b3f47 #3b3f47 0;
#X obj 20 148 cnv 15 1160 338 empty empty empty 20 12 0 14 #111318 #111318 0;
#X obj 20 148 cnv 15 158 338 empty empty empty 20 12 0 14 #1d2025 #1d2025 0;
#X text 38 158 PITCH;
#X text 147 158 ROLE;
#X text 184 158 1;
#X text 304 158 2;
#X text 424 158 3;
#X text 544 158 4;
#X text 664 158 5;
#X text 784 158 6;
#X text 904 158 7;
#X text 1024 158 8;
#X text 69 181 C5;
#X text 69 203 B4;
#X text 69 225 Bb4;
#X text 69 247 A4;
#X text 69 269 Ab4;
#X text 69 291 G4;
#X text 69 313 Gb4;
#X text 69 335 F4;
#X text 69 357 E4;
#X text 69 379 Eb4;
#X text 69 401 D4;
#X text 69 423 Db4;
#X text 69 445 C4;
#X obj 178 177 cnv 15 240 20 empty empty empty 20 12 0 14 #634a82 #634a82 0;
#X obj 418 177 cnv 15 240 20 empty empty empty 20 12 0 14 #634a82 #634a82 0;
#X obj 658 177 cnv 15 240 20 empty empty empty 20 12 0 14 #b64646 #b64646 0;
#X obj 898 177 cnv 15 240 20 empty empty empty 20 12 0 14 #634a82 #634a82 0;
#X obj 178 199 cnv 15 240 20 empty empty empty 20 12 0 14 #376e49 #376e49 0;
#X obj 418 199 cnv 15 240 20 empty empty empty 20 12 0 14 #2b2e35 #2b2e35 0;
#X obj 658 199 cnv 15 240 20 empty empty empty 20 12 0 14 #634a82 #634a82 0;
#X obj 898 199 cnv 15 240 20 empty empty empty 20 12 0 14 #376e49 #376e49 0;
#X obj 178 221 cnv 15 240 20 empty empty empty 20 12 0 14 #b64646 #b64646 0;
#X obj 418 221 cnv 15 240 20 empty empty empty 20 12 0 14 #634a82 #634a82 0;
#X obj 658 221 cnv 15 240 20 empty empty empty 20 12 0 14 #634a82 #634a82 0;
#X obj 898 221 cnv 15 240 20 empty empty empty 20 12 0 14 #477a9c #477a9c 0;
#X obj 178 243 cnv 15 240 20 empty empty empty 20 12 0 14 #376e49 #376e49 0;
#X obj 418 243 cnv 15 240 20 empty empty empty 20 12 0 14 #b64646 #b64646 0;
#X obj 658 243 cnv 15 240 20 empty empty empty 20 12 0 14 #376e49 #376e49 0;
#X obj 898 243 cnv 15 240 20 empty empty empty 20 12 0 14 #376e49 #376e49 0;
#X obj 178 265 cnv 15 240 20 empty empty empty 20 12 0 14 #2b2e35 #2b2e35 0;
#X obj 418 265 cnv 15 240 20 empty empty empty 20 12 0 14 #2b2e35 #2b2e35 0;
#X obj 658 265 cnv 15 240 20 empty empty empty 20 12 0 14 #2b2e35 #2b2e35 0;
#X obj 898 265 cnv 15 240 20 empty empty empty 20 12 0 14 #2b2e35 #2b2e35 0;
#X obj 178 287 cnv 15 240 20 empty empty empty 20 12 0 14 #477a9c #477a9c 0;
#X obj 418 287 cnv 15 240 20 empty empty empty 20 12 0 14 #376e49 #376e49 0;
#X obj 658 287 cnv 15 240 20 empty empty empty 20 12 0 14 #477a9c #477a9c 0;
#X obj 898 287 cnv 15 240 20 empty empty empty 20 12 0 14 #b64646 #b64646 0;
#X obj 178 309 cnv 15 240 20 empty empty empty 20 12 0 14 #2b2e35 #2b2e35 0;
#X obj 418 309 cnv 15 240 20 empty empty empty 20 12 0 14 #2b2e35 #2b2e35 0;
#X obj 658 309 cnv 15 240 20 empty empty empty 20 12 0 14 #2b2e35 #2b2e35 0;
#X obj 898 309 cnv 15 240 20 empty empty empty 20 12 0 14 #2b2e35 #2b2e35 0;
#X obj 178 331 cnv 15 240 20 empty empty empty 20 12 0 14 #d89b42 #d89b42 0;
#X obj 418 331 cnv 15 240 20 empty empty empty 20 12 0 14 #d89b42 #d89b42 0;
#X obj 658 331 cnv 15 240 20 empty empty empty 20 12 0 14 #477a9c #477a9c 0;
#X obj 898 331 cnv 15 240 20 empty empty empty 20 12 0 14 #d89b42 #d89b42 0;
#X obj 178 353 cnv 15 240 20 empty empty empty 20 12 0 14 #477a9c #477a9c 0;
#X obj 418 353 cnv 15 240 20 empty empty empty 20 12 0 14 #376e49 #376e49 0;
#X obj 658 353 cnv 15 240 20 empty empty empty 20 12 0 14 #d89b42 #d89b42 0;
#X obj 898 353 cnv 15 240 20 empty empty empty 20 12 0 14 #477a9c #477a9c 0;
#X obj 178 375 cnv 15 240 20 empty empty empty 20 12 0 14 #2b2e35 #2b2e35 0;
#X obj 418 375 cnv 15 240 20 empty empty empty 20 12 0 14 #2b2e35 #2b2e35 0;
#X obj 658 375 cnv 15 240 20 empty empty empty 20 12 0 14 #2b2e35 #2b2e35 0;
#X obj 898 375 cnv 15 240 20 empty empty empty 20 12 0 14 #2b2e35 #2b2e35 0;
#X obj 178 397 cnv 15 240 20 empty empty empty 20 12 0 14 #376e49 #376e49 0;
#X obj 418 397 cnv 15 240 20 empty empty empty 20 12 0 14 #477a9c #477a9c 0;
#X obj 658 397 cnv 15 240 20 empty empty empty 20 12 0 14 #376e49 #376e49 0;
#X obj 898 397 cnv 15 240 20 empty empty empty 20 12 0 14 #376e49 #376e49 0;
#X obj 178 419 cnv 15 240 20 empty empty empty 20 12 0 14 #2b2e35 #2b2e35 0;
#X obj 418 419 cnv 15 240 20 empty empty empty 20 12 0 14 #2b2e35 #2b2e35 0;
#X obj 658 419 cnv 15 240 20 empty empty empty 20 12 0 14 #2b2e35 #2b2e35 0;
#X obj 898 419 cnv 15 240 20 empty empty empty 20 12 0 14 #2b2e35 #2b2e35 0;
#X obj 178 441 cnv 15 240 20 empty empty empty 20 12 0 14 #634a82 #634a82 0;
#X obj 418 441 cnv 15 240 20 empty empty empty 20 12 0 14 #634a82 #634a82 0;
#X obj 658 441 cnv 15 240 20 empty empty empty 20 12 0 14 #b64646 #b64646 0;
#X obj 898 441 cnv 15 240 20 empty empty empty 20 12 0 14 #634a82 #634a82 0;
#X obj 178 175 cnv 15 2 288 empty empty empty 20 12 0 14 #727780 #727780 0;
#X obj 298 175 cnv 15 2 288 empty empty empty 20 12 0 14 #42464e #42464e 0;
#X obj 418 175 cnv 15 2 288 empty empty empty 20 12 0 14 #727780 #727780 0;
#X obj 538 175 cnv 15 2 288 empty empty empty 20 12 0 14 #42464e #42464e 0;
#X obj 658 175 cnv 15 2 288 empty empty empty 20 12 0 14 #727780 #727780 0;
#X obj 778 175 cnv 15 2 288 empty empty empty 20 12 0 14 #42464e #42464e 0;
#X obj 898 175 cnv 15 2 288 empty empty empty 20 12 0 14 #727780 #727780 0;
#X obj 1018 175 cnv 15 2 288 empty empty empty 20 12 0 14 #42464e #42464e 0;
#X obj 1138 175 cnv 15 2 288 empty empty empty 20 12 0 14 #727780 #727780 0;
#X obj 180 398 cnv 15 30 16 empty empty D4 7 1 0 10 #f07a72 #1a1b1f 0;
#X obj 210 332 cnv 15 30 16 empty empty F4 7 1 0 10 #f2c15c #1a1b1f 0;
#X obj 420 244 cnv 15 60 16 empty empty A4 22 1 0 10 #63d47c #1a1b1f 0;
#X obj 660 288 cnv 15 30 16 empty empty G4 7 1 0 10 #65b8e8 #1a1b1f 0;
#X text 22 499 HARMONY;
#X obj 178 488 cnv 15 240 70 empty empty VI 18 10 0 12 #57449b #e8e4ff 0;
#X text 198 520 Bb/D;
#X obj 418 488 cnv 15 240 70 empty empty v 18 10 0 12 #356e94 #dff3ff 0;
#X text 438 520 Am/E;
#X obj 658 488 cnv 15 240 70 empty empty VII 18 10 0 12 #964080 #ffe2f5 0;
#X text 678 520 C;
#X obj 898 488 cnv 15 240 70 empty empty i13 18 10 0 12 #9f4b45 #ffe4df 0;
#X text 918 520 Dm13/A;
#X obj 20 576 cnv 15 1160 116 empty empty empty 20 12 0 14 #202329 #202329 0;
#X text 38 591 VISUAL PROTOTYPE 01;
#X text 38 616 Fixture: D Aeolian sketch / 8 bars / 4 chords;
#X text 38 640 Background colors follow the active chord at each note start.;
#X text 38 664 Next: fixture loader + editable notes + MIDI playback.;
#X obj 986 606 cnv 15 154 42 empty empty PLAY\ PREVIEW 28 12 0 13 #355f91 #ffffff 0;
#N canvas 200 200 220 150 midi-pass-through 0;
#X obj 30 25 notein;
#X obj 30 90 noteout;
#X connect 0 0 1 0;
#X connect 0 1 1 1;
#X restore 1100 674 pd midi-pass-through;
#X coords 0 -1 1 1 1200 720 2 0 0;
